<?xml version="1.0" encoding="UTF-8" standalone="no"?>
<svg width="32px" height="32px" viewBox="0 0 32 32" version="1.1" xmlns="http://www.w3.org/2000/svg" xmlns:xlink="http://www.w3.org/1999/xlink" xmlns:sketch="http://www.bohemiancoding.com/sketch/ns">
    <!-- Generator: Sketch Beta 3.3.1 (12005) - http://www.bohemiancoding.com/sketch -->
    <title>plus</title>
    <desc>Created with Sketch Beta.</desc>
    <defs></defs>
    <g id="Page-1" stroke="none" stroke-width="1" fill="none" fill-rule="evenodd" sketch:type="MSPage">
        <g id="detail-thumbnail" sketch:type="MSArtboardGroup" transform="translate(-254.000000, -266.000000)" fill="#6683C6">
            <g id="plus" sketch:type="MSLayerGroup" transform="translate(254.000000, 266.000000)">
                <path d="M16,0 C15.448,0 15,0.448 15,1 L15,31 C15,31.552 15.448,32 16,32 C16.552,32 17,31.552 17,31 L17,1 C17,0.448 16.552,0 16,0 Z M31,15 L20,15 C19.448,15 19,15.448 19,16 C19,16.552 19.448,17 20,17 L31,17 C31.552,17 32,16.552 32,16 C32,15.448 31.552,15 31,15 Z M12,15 L1,15 C0.448,15 0,15.448 0,16 C0,16.552 0.448,17 1,17 L12,17 C12.552,17 13,16.552 13,16 C13,15.448 12.552,15 12,15 Z" id="Shape" sketch:type="MSShapeGroup"></path>
            </g>
        </g>
    </g>
</svg>