<?xml version="1.0" encoding="utf-8"?>
<!-- Generator: Adobe Illustrator 17.0.0, SVG Export Plug-In . SVG Version: 6.00 Build 0)  -->
<!DOCTYPE svg PUBLIC "-//W3C//DTD SVG 1.1//EN" "http://www.w3.org/Graphics/SVG/1.1/DTD/svg11.dtd">
<svg version="1.1" id="Capa_1" xmlns="http://www.w3.org/2000/svg" xmlns:xlink="http://www.w3.org/1999/xlink" x="0px" y="0px"
	 width="31.099px" height="27.672px" viewBox="0 0 31.099 27.672" enable-background="new 0 0 31.099 27.672" xml:space="preserve">
<path d="M28.87,0H2.229C1,0,0,1.001,0,2.23v18.704c0,1.23,1,2.23,2.229,2.23h7.394L9,25.615c-0.054,0.237-0.218,0.961,0.235,1.526
	c0.192,0.242,0.564,0.531,1.234,0.531c0.297,0,0.644-0.051,1.137-0.17l18.139-4.501l0.082-0.054
	c0.777-0.369,1.272-1.146,1.272-2.013V2.23C31.099,1,30.099,0,28.87,0z M29.099,20.934c0,0.093-0.052,0.158-0.108,0.193
	l-17.859,4.432c-0.02,0.005-0.04,0.01-0.059,0.014l1.121-4.409H2.229C2.104,21.164,2,21.061,2,20.934V2.23C2,2.103,2.104,2,2.229,2
	H28.87c0.126,0,0.229,0.103,0.229,0.23V20.934z M25.473,11.436c0,1.319-1.069,2.388-2.388,2.388s-2.388-1.069-2.388-2.388
	c0-1.319,1.069-2.388,2.388-2.388S25.473,10.117,25.473,11.436z M10.403,11.436c0,1.319-1.069,2.388-2.388,2.388
	s-2.388-1.069-2.388-2.388c0-1.319,1.069-2.388,2.388-2.388S10.403,10.117,10.403,11.436z M17.938,11.436
	c0,1.319-1.069,2.388-2.388,2.388s-2.388-1.069-2.388-2.388c0-1.319,1.069-2.388,2.388-2.388S17.938,10.117,17.938,11.436z"/>
</svg>
