<?xml version="1.0" encoding="utf-8"?>
<!-- Generator: Adobe Illustrator 16.0.0, SVG Export Plug-In . SVG Version: 6.00 Build 0)  -->
<!DOCTYPE svg PUBLIC "-//W3C//DTD SVG 1.1//EN" "http://www.w3.org/Graphics/SVG/1.1/DTD/svg11.dtd">
<svg version="1.1" id="Layer_1" xmlns="http://www.w3.org/2000/svg" xmlns:xlink="http://www.w3.org/1999/xlink" x="0px" y="0px"
	 width="512px" height="512px" viewBox="0 0 512 512" enable-background="new 0 0 512 512" xml:space="preserve">
<g>
	<g>
		<g>
			<g>
				<g>
					<path fill="#F2CAB8" d="M7.921,255.999c0-137.018,111.072-248.08,248.076-248.08c137.012,0,248.082,111.063,248.082,248.08
						c0,137.004-111.07,248.082-248.082,248.082C118.993,504.081,7.921,393.003,7.921,255.999z"/>
				</g>
			</g>
		</g>
	</g>
	<g>
		<g>
			<g>
				<g>
					<path fill="#DB2A2A" d="M332.308,134.593c-29.488,0-56.898,14.379-73.373,38.479l-3.41,4.322l-2.266-2.893
						c-16.291-24.998-43.754-39.908-73.553-39.908c-50.854,0-87.766,36.908-87.766,87.762c0,75.086,135.916,185.746,145.828,193.707
						c4.689,4.477,10.799,6.932,17.301,6.932c6.488,0,12.617-2.455,17.301-6.939c9.943-8.018,147.705-120.424,147.705-193.699
						C420.075,171.501,383.165,134.593,332.308,134.593z"/>
				</g>
			</g>
			<g>
				<g>
					<path fill="#D61E1E" d="M255.524,177.394l-2.266-2.893c-16.291-24.998-43.754-39.908-73.553-39.908
						c-50.854,0-87.766,36.908-87.766,87.762c0,75.086,135.916,185.746,145.828,193.707c4.689,4.477,10.799,6.932,17.301,6.932
						L255.524,177.394z"/>
				</g>
			</g>
		</g>
		<g>
			<g>
				<g>
					<g>
						<path fill="#F6A2A3" d="M102.198,262.425c3.473,7.553,7.676,15.193,12.465,22.844h281.875
							c4.92-7.664,9.256-15.314,12.826-22.844H102.198z"/>
					</g>
				</g>
			</g>
			<g>
				<path fill="#EA969B" d="M288.327,371.851l0.68-17.053l-16.416,9.98c-1.531-0.678,14.105-23.057,22.654-44.506
					c6.721-16.926,6.664-34.061,6.664-34.061c1.229-2.75,4.453-3.973,7.197-2.742l15.734,7.072c2.75,1.23,3.973,4.449,2.74,7.197
					c0,0-0.381,15.891-8.238,31.566C308.821,350.282,289.903,372.556,288.327,371.851z"/>
			</g>
			<g>
				<path fill="#EFABB3" d="M339.833,380.847l-6.756-14.947l-13.336,16.584c-1.943,0.162,4.598-25.398,1.252-52.168
					c-2.65-21.092-13.725-43.094-13.725-43.094c-0.281-3.508,29.01-6.184,29.295-2.678c0,0,11.836,20.969,12.639,41.434
					C350.265,353.374,341.837,380.679,339.833,380.847z"/>
			</g>
			<g>
				<g>
					<g>
						<g>
							<path fill="#EA969B" d="M311.179,283.403c1.186,4.842-1.773,9.721-6.609,10.908l-42.414,25.875
								c-4.836,1.186-9.727-1.768-10.91-6.609l-11.279-45.996c-1.184-4.834,1.783-9.717,6.619-10.904l49.568,3.322
								c4.836-1.186,9.727,1.775,10.91,6.611L311.179,283.403z"/>
						</g>
					</g>
					<g>
						<g>
							<path fill="#EA969B" d="M319.212,281.437c1.186,4.836,6.07,7.795,10.902,6.609l49.576,3.326
								c4.836-1.191,7.807-6.072,6.607-10.906l-11.275-45.994c-1.186-4.842-6.063-7.799-10.9-6.613L321.7,253.737
								c-4.838,1.182-7.789,6.072-6.604,10.906L319.212,281.437z"/>
						</g>
					</g>
					<g>
						<g>
							<path fill="#D37F87" d="M319.366,251.985l-20.488,5.023c-1.881,0.459-3.506,1.432-4.764,2.715
								c3.295,7.299,7.486,20.588,7.379,36.492c0.668,0.369,1.371,0.658,2.105,0.863c1.621,0.455,3.375,0.514,5.127,0.086
								l20.484-5.027c5.426-1.328,8.756-6.814,7.424-12.24l-5.025-20.486C330.276,253.979,324.798,250.655,319.366,251.985z"/>
						</g>
					</g>
					<g>
						<g>
							<path fill="#D37F87" d="M337.192,274.177c0.16,0.719,0.596,1.162,0.98,1.002l16.541-12.914
								c0.379-0.162,0.572-0.873,0.41-1.586l0,0c-0.158-0.711-0.598-1.16-0.988-1.002l-18.949,1.861
								c-0.389,0.16-0.574,0.871-0.422,1.584L337.192,274.177z"/>
						</g>
					</g>
					<g>
						<g>
							<path fill="#D37F87" d="M298.333,284.267c0.201,0.705,0.02,1.309-0.404,1.346l-20.633-3.809
								c-0.414,0.039-0.9-0.506-1.104-1.209l0,0c-0.182-0.703,0-1.301,0.414-1.338l17.674-7.123
								c0.406-0.039,0.902,0.504,1.092,1.207L298.333,284.267z"/>
						</g>
					</g>
				</g>
			</g>
		</g>
	</g>
</g>
</svg>
