<?xml version="1.0" encoding="utf-8"?>
<!-- Generator: Adobe Illustrator 16.0.0, SVG Export Plug-In . SVG Version: 6.00 Build 0)  -->
<!DOCTYPE svg PUBLIC "-//W3C//DTD SVG 1.1//EN" "http://www.w3.org/Graphics/SVG/1.1/DTD/svg11.dtd">
<svg version="1.1" id="Layer_7" xmlns="http://www.w3.org/2000/svg" xmlns:xlink="http://www.w3.org/1999/xlink" x="0px" y="0px"
	 width="100px" height="100px" viewBox="0 0 100 100" enable-background="new 0 0 100 100" xml:space="preserve">
<path d="M76.148,74.979V60.274c0-6.646-4.246-12.285-10.168-14.394v-7.144c0-2.602-2.113-4.712-4.715-4.712
	c-2.605,0-4.717,2.11-4.717,4.712c0,0,0.486,6.244-5.795,6.244c-6.285,0-6.949-6.244-6.949-6.244c0-2.602-2.107-4.712-4.713-4.712
	c-2.604,0-4.715,2.11-4.715,4.712v7.402c-5.549,2.295-9.453,7.757-9.453,14.135v14.828c-1.121,0.643-1.887,1.834-1.887,3.219
	c0,2.054,1.668,3.72,3.719,3.72h47.783c2.057,0,3.723-1.666,3.723-3.72C78.262,76.844,77.395,75.581,76.148,74.979z M50.535,68.535
	c-4.594,0-8.32-3.724-8.32-8.318c0-4.596,3.727-8.319,8.32-8.319s8.322,3.724,8.322,8.319
	C58.857,64.812,55.129,68.535,50.535,68.535z M54.904,60.164c0,2.467-1.998,4.464-4.465,4.464c-2.465,0-4.463-1.997-4.463-4.464
	c0-2.466,1.998-4.465,4.463-4.465C52.906,55.699,54.904,57.698,54.904,60.164z M85.516,37.018l0.008,0.003
	c-0.018,0.086-0.037,0.166-0.053,0.251c-0.029,0.151-0.059,0.29-0.088,0.426c-0.014,0.056-0.025,0.115-0.039,0.175
	c-0.178,0.732-0.348,1.158-0.348,1.158s-0.012-0.011-0.027-0.022c-1.264,3.172-4.053,5.161-6.881,4.128l-6.256-2.605
	c-3.375-1.231-5.51-5.818-4.775-10.246l0.061-0.359c-7.652-2.129-22.918-2.957-34.293,0.261l0.139,0.842
	c0.736,4.428-1.404,9.013-4.775,10.243l-6.252,1.959c-3.291,1.201-6.531-0.918-7.373-5.147c-0.783-2.488-1.238-19.442,33.006-20.099
	C83.668,17.291,86.432,31.617,85.516,37.018z"/>
</svg>
