<?xml version="1.0" encoding="utf-8"?>
<!-- Generator: Adobe Illustrator 16.0.0, SVG Export Plug-In . SVG Version: 6.00 Build 0)  -->
<!DOCTYPE svg PUBLIC "-//W3C//DTD SVG 1.1//EN" "http://www.w3.org/Graphics/SVG/1.1/DTD/svg11.dtd">
<svg version="1.1" id="Layer_1" xmlns="http://www.w3.org/2000/svg" xmlns:xlink="http://www.w3.org/1999/xlink" x="0px" y="0px"
	 width="512px" height="512px" viewBox="0 0 512 512" enable-background="new 0 0 512 512" xml:space="preserve">
<g>
	<g>
		<g>
			<g>
				<g>
					<path fill="#F2CAB8" d="M7.921,256.002c0-137.021,111.07-248.084,248.076-248.084c137.012,0,248.082,111.063,248.082,248.084
						c0,137.005-111.07,248.079-248.082,248.079C118.991,504.082,7.921,393.007,7.921,256.002z"/>
				</g>
			</g>
		</g>
	</g>
	<g>
		<g>
			<path fill="#DB2A2A" d="M224.944,337.62c-8.17,2.781-14.414,9.345-16.707,17.575l-0.535,1.521l-0.9-0.591
				c-6.867-5.39-15.879-6.933-24.135-4.127c-14.096,4.79-20.84,18.497-16.051,32.588c7.072,20.804,55.158,38.652,58.652,39.926
				c1.727,0.793,3.65,0.9,5.455,0.287c1.793-0.61,3.26-1.867,4.139-3.555c1.994-3.157,29.574-47.278,22.666-67.58
				C252.735,339.575,239.032,332.825,224.944,337.62z"/>
		</g>
		<g>
			<path fill="#D61E1E" d="M207.702,356.716l-0.9-0.591c-6.867-5.39-15.879-6.933-24.135-4.127
				c-14.096,4.79-20.84,18.497-16.051,32.588c7.072,20.804,55.158,38.652,58.652,39.926c1.727,0.793,3.65,0.9,5.455,0.287
				L207.702,356.716z"/>
		</g>
	</g>
	<g>
		<g>
			<path fill="#DB2A2A" d="M140.571,171.34c-9.039,1.898-16.518,8.065-20.016,16.517l-0.766,1.539l-0.881-0.737
				c-6.6-6.616-15.973-9.419-25.109-7.505c-15.588,3.271-24.529,16.959-21.256,32.543c4.826,23.013,53.602,48.188,57.154,49.992
				c1.721,1.069,3.754,1.428,5.752,1.006c1.984-0.414,3.705-1.561,4.852-3.236c2.533-3.094,37.525-46.406,32.813-68.862
				C169.845,177.008,156.155,168.067,140.571,171.34z"/>
		</g>
		<g>
			<path fill="#D61E1E" d="M119.79,189.396l-0.881-0.737c-6.6-6.616-15.973-9.419-25.109-7.505
				c-15.588,3.271-24.529,16.959-21.256,32.543c4.826,23.013,53.602,48.188,57.154,49.992c1.721,1.069,3.754,1.428,5.752,1.006
				L119.79,189.396z"/>
		</g>
	</g>
	<g>
		<g>
			<path fill="#DB2A2A" d="M382.247,127.933c-1.582-1.46-3.703-2.114-5.676-1.748l-0.379,0.046l0.014-0.256
				c0.256-2.032-0.545-4.121-2.141-5.6c-2.729-2.518-6.377-2.536-8.676-0.044c-3.398,3.679-1.117,15.832-0.945,16.713
				c0.047,0.451,0.264,0.874,0.615,1.195c0.346,0.321,0.785,0.505,1.24,0.516c0.893,0.1,13.363,1.417,16.678-2.175
				C385.284,134.085,384.976,130.45,382.247,127.933z"/>
		</g>
		<g>
			<path fill="#D61E1E" d="M376.192,126.231l0.014-0.256c0.256-2.032-0.545-4.121-2.141-5.6c-2.729-2.518-6.377-2.536-8.676-0.044
				c-3.398,3.679-1.117,15.832-0.945,16.713c0.047,0.451,0.264,0.874,0.615,1.195L376.192,126.231z"/>
		</g>
	</g>
	<g>
		<g>
			<path fill="#DB2A2A" d="M154.403,305.56c-2.041,0.688-3.629,2.235-4.256,4.143l-0.139,0.354l-0.221-0.132
				c-1.66-1.201-3.875-1.502-5.938-0.812c-3.518,1.188-5.283,4.38-4.203,7.597c1.598,4.741,13.355,8.571,14.217,8.843
				c0.416,0.176,0.891,0.188,1.34,0.034c0.447-0.151,0.822-0.447,1.051-0.842c0.514-0.736,7.65-11.05,6.09-15.682
				C161.259,305.849,157.923,304.375,154.403,305.56z"/>
		</g>
		<g>
			<path fill="#D61E1E" d="M150.009,310.057l-0.221-0.132c-1.66-1.201-3.875-1.502-5.938-0.812c-3.518,1.188-5.283,4.38-4.203,7.597
				c1.598,4.741,13.355,8.571,14.217,8.843c0.416,0.176,0.891,0.188,1.34,0.034L150.009,310.057z"/>
		</g>
	</g>
	<g>
		<g>
			<path fill="#DB2A2A" d="M266.519,112.038c-7.811-1.933-15.938-0.255-21.742,4.498l-1.168,0.822l-0.424-0.848
				c-2.814-7.122-9.193-12.532-17.086-14.488c-13.471-3.337-25.459,3.17-28.508,15.48c-4.504,18.177,24.855,53.88,27.01,56.45
				c0.967,1.396,2.443,2.393,4.166,2.815c1.719,0.429,3.479,0.237,4.996-0.539c3.113-1.288,46.34-19.454,50.732-37.187
				C287.542,126.728,279.983,115.372,266.519,112.038z"/>
		</g>
		<g>
			<path fill="#D61E1E" d="M243.608,117.358l-0.424-0.848c-2.814-7.122-9.193-12.532-17.086-14.488
				c-13.471-3.337-25.459,3.17-28.508,15.48c-4.504,18.177,24.855,53.88,27.01,56.45c0.967,1.396,2.443,2.393,4.166,2.815
				L243.608,117.358z"/>
		</g>
	</g>
	<g>
		<g>
			<path fill="#DB2A2A" d="M346.136,369.892c-5.025-3.111-11.08-3.771-16.209-1.757l-0.998,0.311l-0.105-0.688
				c-0.361-5.61-3.598-10.831-8.672-13.978c-8.662-5.367-18.504-3.524-23.408,4.391c-7.246,11.684,5.217,43.252,6.141,45.531
				c0.365,1.194,1.166,2.225,2.281,2.907c1.098,0.688,2.375,0.951,3.609,0.75c2.463-0.197,36.766-3.143,43.834-14.542
				C357.515,384.9,354.792,375.26,346.136,369.892z"/>
		</g>
		<g>
			<path fill="#D61E1E" d="M328.929,368.446l-0.105-0.688c-0.361-5.61-3.598-10.831-8.672-13.978
				c-8.662-5.367-18.504-3.524-23.408,4.391c-7.246,11.684,5.217,43.252,6.141,45.531c0.365,1.194,1.166,2.225,2.281,2.907
				L328.929,368.446z"/>
		</g>
	</g>
	<g>
		<g>
			<path fill="#DB2A2A" d="M427.079,192.689c-16.477-6.323-34.611-4.872-48.543,3.899l-2.748,1.475l-0.701-1.961
				c-4.197-16.262-16.609-29.767-33.258-36.161c-28.41-10.91-56.266,0.005-66.24,25.972c-14.723,38.33,39.5,123.983,43.482,130.17
				c1.734,3.299,4.672,5.859,8.309,7.254c3.627,1.396,7.512,1.461,11.021,0.181c7.121-1.963,106.127-29.781,120.484-67.186
				C468.856,230.365,455.483,203.596,427.079,192.689z"/>
		</g>
		<g>
			<path fill="#D61E1E" d="M375.788,198.063l-0.701-1.961c-4.197-16.262-16.609-29.767-33.258-36.161
				c-28.41-10.91-56.266,0.005-66.24,25.972c-14.723,38.33,39.5,123.983,43.482,130.17c1.734,3.299,4.672,5.859,8.309,7.254
				L375.788,198.063z"/>
		</g>
	</g>
	<g>
		<g>
			<path fill="#DB2A2A" d="M236.257,254.876c-5.322-0.787-10.621,0.846-14.184,4.381l-0.723,0.62l-0.34-0.535
				c-2.328-4.566-6.916-7.76-12.291-8.557c-9.182-1.364-16.748,3.729-17.992,12.121c-1.842,12.382,19.973,34.276,21.566,35.853
				c0.736,0.869,1.781,1.435,2.957,1.612c1.172,0.172,2.334-0.063,3.295-0.68c1.984-1.057,29.607-15.899,31.398-27.985
				C251.192,263.319,245.437,256.241,236.257,254.876z"/>
		</g>
		<g>
			<path fill="#D61E1E" d="M221.351,259.877l-0.34-0.535c-2.328-4.566-6.916-7.76-12.291-8.557
				c-9.182-1.364-16.748,3.729-17.992,12.121c-1.842,12.382,19.973,34.276,21.566,35.853c0.736,0.869,1.781,1.435,2.957,1.612
				L221.351,259.877z"/>
		</g>
	</g>
</g>
</svg>
